HIERARCHY
ROOT Hips
{
	OFFSET 14.658700 -1.743397 44.686901
	CHANNELS 6 Xposition Yposition Zposition Zrotation Xrotation Yrotation
	JOINT Chest
	{
		OFFSET -0.825500 0.895800 5.069500
		CHANNELS 6 Xposition Yposition Zposition Zrotation Xrotation Yrotation
		JOINT Chest2
		{
			OFFSET 0.000000 0.000000 4.622200
			CHANNELS 6 Xposition Yposition Zposition Zrotation Xrotation Yrotation
			JOINT Neck
			{
				OFFSET 0.000000 0.000001 10.755798
				CHANNELS 6 Xposition Yposition Zposition Zrotation Xrotation Yrotation
				JOINT Head
				{
					OFFSET 0.000000 0.000000 2.173897
					CHANNELS 6 Xposition Yposition Zposition Zrotation Xrotation Yrotation
					End Site
					{
						OFFSET 0.000000 0.000001 10.006599
					}
				}
			}
			JOINT LeftCollar
			{
				OFFSET 2.539400 -1.380899 6.761002
				CHANNELS 6 Xposition Yposition Zposition Zrotation Xrotation Yrotation
				JOINT LeftShoulder
				{
					OFFSET 5.407000 0.000000 0.000000
					CHANNELS 6 Xposition Yposition Zposition Zrotation Xrotation Yrotation
					JOINT LeftElbow
					{
						OFFSET 0.000000 -0.000001 -10.687000
						CHANNELS 6 Xposition Yposition Zposition Zrotation Xrotation Yrotation
						JOINT LeftWrist
						{
							OFFSET 0.000000 -0.000001 -13.346901
							CHANNELS 6 Xposition Yposition Zposition Zrotation Xrotation Yrotation
							End Site
							{
								OFFSET 0.000000 -0.000000 -2.173901
							}
						}
					}
				}
			}
			JOINT RightCollar
			{
				OFFSET -2.411400 -2.842699 7.518600
				CHANNELS 6 Xposition Yposition Zposition Zrotation Xrotation Yrotation
				JOINT RightShoulder
				{
					OFFSET -4.245500 0.000000 0.000000
					CHANNELS 6 Xposition Yposition Zposition Zrotation Xrotation Yrotation
					JOINT RightElbow
					{
						OFFSET 0.000000 -0.000001 -10.446701
						CHANNELS 6 Xposition Yposition Zposition Zrotation Xrotation Yrotation
						JOINT RightWrist
						{
							OFFSET 0.000000 -0.000001 -12.218899
							CHANNELS 6 Xposition Yposition Zposition Zrotation Xrotation Yrotation
							End Site
							{
								OFFSET 0.000000 0.000000 -2.173901
							}
						}
					}
				}
			}
		}
	}
	JOINT LeftHip
	{
		OFFSET 2.346700 0.301800 -2.502800
		CHANNELS 6 Xposition Yposition Zposition Zrotation Xrotation Yrotation
		JOINT LeftKnee
		{
			OFFSET 0.000000 -0.000002 -20.597000
			CHANNELS 6 Xposition Yposition Zposition Zrotation Xrotation Yrotation
			JOINT LeftAnkle
			{
				OFFSET 0.000000 -0.000001 -17.157499
				CHANNELS 6 Xposition Yposition Zposition Zrotation Xrotation Yrotation
				End Site
				{
					OFFSET 0.000000 -9.063900 0.000001
				}
			}
		}
	}
	JOINT RightHip
	{
		OFFSET -1.908600 -0.007900 -2.706001
		CHANNELS 6 Xposition Yposition Zposition Zrotation Xrotation Yrotation
		JOINT RightKnee
		{
			OFFSET 0.000000 -0.000002 -20.198500
			CHANNELS 6 Xposition Yposition Zposition Zrotation Xrotation Yrotation
			JOINT RightAnkle
			{
				OFFSET 0.000000 -0.000001 -17.295700
				CHANNELS 6 Xposition Yposition Zposition Zrotation Xrotation Yrotation
				End Site
				{
					OFFSET 0.000000 -8.113500 0.000001
				}
			}
		}
	}
}
MOTION
Frames: 5
Frame Time: 0.041667
49.451099 32.343403 49.909191 -1409.814210 7.211104 0.995852 -0.825498 0.895801 5.069498 -31.344384 -16.079447 -4.987907 0.000004 0.000006 4.622192 23.439524 2.124964 -1.972456 0.000004 0.000004 10.755802 -7.196359 2.162906 2.368637 0.000004 0.000004 2.173908 -1.768043 -5.234995 -1.396402 2.539406 -1.380903 6.761001 12.940756 -18.204688 -38.751963 5.407001 -0.000006 0.000003 68.117012 -134.759209 16.205066 -0.000003 0.000001 -10.686990 37.719791 -14.357343 16.740445 0.000004 -0.000002 -13.346906 -105.969695 4.681102 -5.095286 -2.411398 -2.842695 7.518600 -1.979171 -15.031395 44.642864 -4.245495 -0.000002 -0.000011 -421.614737 -130.684537 -354.675987 0.000002 -0.000005 -10.446701 -2.798499 -16.198705 -8.936975 0.000003 -0.000002 -12.218903 43.049716 -2.886243 11.207370 2.346700 0.301802 -2.502794 7.511542 -11.439669 -0.787780 -0.000001 0.000004 -20.597000 187.056301 156.682518 -175.334836 -0.000008 -0.000000 -17.157501 14.042331 36.841999 30.387064 -1.908596 -0.007900 -2.705998 -4.219337 -9.860322 6.331008 -0.000003 -0.000005 -20.198496 -9.375646 17.497879 -4.351099 -0.000009 -0.000005 -17.295700 8.627742 60.424894 -2.759426
49.599201 32.398003 49.944691 -1413.239687 7.318827 1.127450 -0.825488 0.895802 5.069503 -27.858757 -16.342730 -4.362483 -0.000004 0.000003 4.622197 20.304674 2.021101 -1.690190 -0.000003 0.000006 10.755795 -5.995337 2.227482 1.858823 0.000002 0.000008 2.173908 -1.543577 -5.300791 -1.126123 2.539394 -1.380897 6.760996 12.813333 -17.881656 -38.663331 5.407006 -0.000000 -0.000006 68.270200 -134.947722 16.445748 0.000003 0.000003 -10.686993 36.610210 -14.805473 16.210144 0.000001 -0.000002 -13.346893 -105.157244 4.848492 -4.514016 -2.411406 -2.842698 7.518601 -1.965525 -14.781013 44.539141 -4.245505 -0.000004 -0.000010 -422.324612 -130.946829 -355.141533 -0.000003 -0.000002 -10.446704 -1.959974 -16.009099 -8.605136 0.000007 -0.000003 -12.218897 42.277495 -3.041134 11.424335 2.346705 0.301806 -2.502791 7.518751 -11.390882 -0.916752 0.000001 -0.000001 -20.597000 187.590326 156.674185 -175.367989 0.000002 0.000003 -17.157497 14.133976 37.360944 30.381156 -1.908596 -0.007898 -2.705997 -4.151929 -10.191791 6.115670 0.000001 -0.000003 -20.198496 -9.760967 16.915428 -4.367564 -0.000002 -0.000000 -17.295704 8.492566 60.865776 -2.726490
49.728394 32.437702 49.969994 -1416.369006 7.464189 1.361521 -0.825499 0.895797 5.069493 -24.700155 -16.531409 -3.853507 0.000002 0.000003 4.622202 17.206491 1.850592 -1.403524 0.000007 0.000001 10.755800 -4.815844 2.259701 1.331789 0.000005 0.000005 2.173905 -1.213928 -5.143969 -0.934377 2.539406 -1.380898 6.761001 12.713473 -17.821203 -38.082106 5.407002 -0.000000 -0.000003 69.649597 -136.023941 17.458870 0.000007 0.000000 -10.687003 37.905433 -14.396079 16.356771 0.000006 0.000002 -13.346893 -105.875725 5.159586 -3.273134 -2.411402 -2.842697 7.518593 -2.060223 -14.833655 44.240365 -4.245502 0.000000 -0.000013 -423.393345 -131.126914 -356.077186 -0.000003 -0.000003 -10.446695 -1.360298 -16.185475 -8.452023 0.000001 0.000000 -12.218898 41.068428 -2.996778 11.228728 2.346698 0.301797 -2.502795 6.953355 -11.244075 -1.207161 0.000003 -0.000001 -20.597000 187.940892 156.817851 -175.230525 -0.000006 -0.000002 -17.157501 14.547936 37.691856 30.291493 -1.908604 -0.007903 -2.706004 -4.501688 -10.646076 5.696576 -0.000004 -0.000007 -20.198503 -9.545755 16.648683 -4.275107 -0.000004 -0.000009 -17.295702 8.797111 60.736822 -4.053406
49.861797 32.480206 49.987198 -1419.348717 7.649923 1.612864 -0.825493 0.895803 5.069496 -21.715092 -16.688498 -3.600500 -0.000001 0.000003 4.622201 14.045378 1.696543 -1.086064 0.000006 -0.000004 10.755808 -3.422365 2.211185 1.068736 0.000003 0.000001 2.173909 -0.979393 -5.049294 -0.681963 2.539400 -1.380901 6.761010 12.807502 -17.486005 -37.669255 5.407011 0.000002 -0.000003 71.100056 -136.885898 18.199891 0.000002 0.000006 -10.686987 39.048772 -14.117427 16.356850 0.000005 -0.000000 -13.346890 -106.038987 4.981079 -3.105454 -2.411395 -2.842704 7.518601 -2.015668 -14.676437 44.060232 -4.245501 0.000003 -0.000010 -423.946263 -131.365944 -356.501423 -0.000001 -0.000002 -10.446704 -0.120844 -16.554569 -8.055784 0.000002 0.000002 -12.218904 39.602536 -2.920275 11.034522 2.346702 0.301807 -2.502800 6.806959 -11.278073 -1.381509 0.000000 0.000001 -20.597004 188.357711 156.701069 -175.391868 -0.000004 0.000002 -17.157501 14.396323 37.748342 30.160951 -1.908595 -0.007897 -2.705997 -5.066627 -11.215802 5.223572 -0.000005 -0.000001 -20.198502 -8.791973 16.501496 -4.365450 0.000002 -0.000002 -17.295702 7.974149 61.057656 -3.312973
50.003098 32.517216 49.997997 -1422.298266 7.616465 1.617165 -0.825501 0.895802 5.069499 -18.669934 -16.873982 -3.018191 0.000000 -0.000001 4.622202 11.387554 1.677678 -0.922762 -0.000001 0.000003 10.755804 -2.258845 2.316980 0.830621 -0.000003 0.000002 2.173914 -0.566523 -5.118872 -0.909041 2.539397 -1.380898 6.761001 12.589762 -17.026512 -37.440027 5.407010 -0.000001 -0.000009 71.195310 -136.906129 18.031850 0.000001 0.000004 -10.687013 38.876317 -14.246515 16.344047 0.000001 -0.000005 -13.346893 -105.736553 4.994562 -2.954347 -2.411407 -2.842700 7.518601 -1.864934 -14.105606 44.160178 -4.245504 0.000008 -0.000005 -424.552456 -131.652238 -356.498746 -0.000003 -0.000005 -10.446692 0.951299 -16.711960 -7.650069 0.000006 -0.000010 -12.218889 38.301915 -2.796274 10.768989 2.346694 0.301797 -2.502805 6.664514 -10.986559 -1.294886 0.000004 0.000001 -20.597000 189.143730 156.680687 -175.661592 -0.000002 0.000001 -17.157501 14.040075 37.891629 29.813673 -1.908603 -0.007900 -2.706003 -5.294363 -11.600599 5.045129 0.000004 -0.000003 -20.198502 -6.580137 16.831919 -4.794502 -0.000004 -0.000008 -17.295702 5.358403 60.326457 -1.967546
